#!OML:ASF \\Waltz\H\Terrain\Patient Classification 1\Animal2\Wednesday\Animal2.ASF
:FULLY-SPECIFIED
:DEGREES
508
root -1.12108 17.6532 -3.49113 3.0369 67.6248 362.076
lowerback 2.35191 0.422872 2.02266
upperback -5.78105 0.905956 1.95192
thorax -7.35663 0.432896 0.826666
lowerneck 11.3657 7.88989 17.4411
upperneck -10.7445 11.406 -21.9704
head -2.59991 6.4385 -10.3218
rclavicle -1.43125e-014 9.54166e-015
rhumerus 33.9106 31.7343 -30.287
rradius 61.5515
rwrist -31.9461
rhand -8.52721 15.7235
rfingers 7.12502
rthumb 17.4015 -13.5176
lclavicle -1.43125e-014 9.54166e-015
lhumerus 12.4998 13.6151 1.31656
lradius 57.2273
lwrist 12.9878
lhand -48.9766 7.79341
lfingers 7.12502
lthumb -21.6065 36.608
rfemur -23.9552 2.48953 11.3165
rtibia 22.3366
rfoot -3.17235 10.1942
rtoes 38.0666
lfemur -1.11059 -13.0844 -25.6153
ltibia 25.4851
lfoot 11.3375 -31.0213
ltoes 46.9924
509
root -1.08945 17.6938 -3.40954 2.6185 68.8422 361.509
lowerback 2.42509 0.460051 2.42462
upperback -5.85167 0.980491 1.82797
thorax -7.46798 0.44235 0.465032
lowerneck 10.6435 7.7217 18.0783
upperneck -9.62863 11.2723 -22.5085
head -2.10897 6.34694 -10.5123
rclavicle -5.06901e-014 -2.70347e-014
rhumerus 33.8547 31.7378 -30.3766
rradius 61.7291
rwrist -32.0254
rhand -8.31825 15.6816
rfingers 7.12502
rthumb 17.6026 -13.5415
lclavicle -5.06901e-014 -2.70347e-014
lhumerus 12.6366 13.4616 1.40739
lradius 57.0682
lwrist 12.9891
lhand -48.9447 6.59123
lfingers 7.12502
lthumb -21.5759 35.4093
rfemur -23.4554 2.40226 11.638
rtibia 22.15
rfoot -4.07343 8.15242
rtoes 35.3521
lfemur -1.14649 -13.3389 -24.9869
ltibia 25.5797
lfoot 12.1108 -30.8942
ltoes 47.4264
510
root -1.05492 17.7306 -3.32298 2.35661 70.0212 361.204
lowerback 2.45421 0.59586 2.64079
upperback -5.81283 1.16857 1.71387
thorax -7.4356 0.518988 0.207795
lowerneck 10.4691 8.02961 17.4948
upperneck -9.66291 11.5978 -22.4221
head -2.06285 6.51873 -10.3593
rclavicle -1.40143e-014 -3.97569e-015
rhumerus 33.63 31.5335 -30.3194
rradius 61.8768
rwrist -31.9129
rhand -8.31602 15.9971
rfingers 7.12502
rthumb 17.6047 -13.2259
lclavicle -1.40143e-014 -3.97569e-015
lhumerus 13.0982 13.5836 1.88896
lradius 56.926
lwrist 12.6391
lhand -48.6971 7.95072
lfingers 7.12502
lthumb -21.3381 36.7959
rfemur -22.7516 2.55082 11.7933
rtibia 21.8643
rfoot -4.82817 5.73053
rtoes 34.2281
lfemur -1.11633 -13.6086 -24.4943
ltibia 25.8326
lfoot 12.7781 -30.6267
ltoes 47.8515
511
root -1.01754 17.7513 -3.23647 2.3447 71.1017 361.149
lowerback 2.40865 0.666371 2.72695
upperback -5.74309 1.25974 1.65314
thorax -7.3297 0.558148 0.0887902
lowerneck 10.3022 8.2952 17.0514
upperneck -9.66451 11.8871 -22.4564
head -2.00056 6.67553 -10.2718
rclavicle 2.74323e-014 1.82882e-014
rhumerus 33.9274 31.523 -29.9934
rradius 61.8725
rwrist -31.7039
rhand -8.35191 16.1976
rfingers 7.12502
rthumb 17.5702 -13.0285
lclavicle 2.74323e-014 1.82882e-014
lhumerus 13.1548 13.6466 2.05136
lradius 56.8723
lwrist 12.5891
lhand -48.5092 9.49465
lfingers 7.12502
lthumb -21.1576 38.3602
rfemur -22.1458 2.25827 11.9381
rtibia 21.6439
rfoot -5.34154 4.15904
rtoes 32.1807
lfemur -1.17565 -13.7256 -24.0944
ltibia 26.1997
lfoot 12.4732 -30.5861
ltoes 46.5758
512
root -0.979345 17.7638 -3.15015 2.10693 72.0732 360.72
lowerback 2.25195 0.742803 2.94488
upperback -5.72808 1.36748 1.61085
thorax -7.21562 0.599847 -0.0841251
lowerneck 10.1227 8.45617 16.9004
upperneck -9.56948 12.0771 -22.6894
head -1.89596 6.78332 -10.2991
rclavicle -2.50469e-014 3.18055e-015
rhumerus 34.3437 31.6382 -29.5901
rradius 62.0132
rwrist -31.8736
rhand -8.43393 16.0999
rfingers 7.12502
rthumb 17.4913 -13.1332
lclavicle -2.50469e-014 3.18055e-015
lhumerus 12.9319 13.2798 1.78027
lradius 57.0278
lwrist 13.0529
lhand -48.5624 9.56156
lfingers 7.12502
lthumb -21.2087 38.4213
rfemur -21.8572 1.61315 12.2793
rtibia 21.664
rfoot -5.61088 3.33584
rtoes 30.4069
lfemur -1.37596 -13.7032 -23.5527
ltibia 26.5328
lfoot 12.4304 -30.5114
ltoes 45.9276
513
root -0.943113 17.7687 -3.06162 2.01093 73.1246 360.345
lowerback 2.12723 0.849262 3.07557
upperback -5.85498 1.51532 1.5025
thorax -7.27066 0.662608 -0.281321
lowerneck 10.0798 8.37322 17.2638
upperneck -9.31825 12.0291 -23.227
head -1.76314 6.77804 -10.5311
rclavicle 1.6201e-014 -1.59028e-015
rhumerus 34.3396 31.7139 -29.4818
rradius 62.2604
rwrist -32.3014
rhand -8.44305 16.0331
rfingers 7.12502
rthumb 17.4825 -13.2008
lclavicle 1.6201e-014 -1.59028e-015
lhumerus 13.1544 13.1441 1.94907
lradius 56.819
lwrist 13.0901
lhand -48.5531 9.88429
lfingers 7.12502
lthumb -21.1998 38.7451
rfemur -21.7563 0.915484 12.5685
rtibia 21.8552
rfoot -5.85423 2.74469
rtoes 29.6979
lfemur -1.6801 -13.648 -23.0329
ltibia 26.8242
lfoot 13.0302 -30.2818
ltoes 46.6867
514
root -0.909986 17.7717 -2.98027 3.03684 74.2162 361.152
lowerback 2.07766 0.852488 2.95623
upperback -6.0014 1.5039 1.26921
thorax -7.39511 0.654922 -0.457905
lowerneck 10.9253 8.32667 17.8196
upperneck -9.88259 12.0716 -24.0654
head -1.95699 6.88398 -11.0025
rclavicle -7.2954e-014 -2.78299e-014
rhumerus 34.4853 31.8173 -29.6573
rradius 62.3286
rwrist -32.2713
rhand -8.33657 16.0606
rfingers 7.12502
rthumb 17.585 -13.1641
lclavicle -7.2954e-014 -2.78299e-014
lhumerus 13.441 13.6383 2.36819
lradius 56.0941
lwrist 12.4286
lhand -48.3407 10.8699
lfingers 7.12502
lthumb -20.9957 39.7534
rfemur -21.7149 -0.192215 12.5439
rtibia 22.088
rfoot -6.23703 2.8699
rtoes 28.5584
lfemur -1.97537 -13.8762 -22.9078
ltibia 27.1063
lfoot 14.3571 -29.5049
ltoes 47.3212
515
root -0.875879 17.7862 -2.89429 3.59418 75.1967 361.617
lowerback 2.07583 0.87835 2.99713
upperback -6.01437 1.53188 1.11646
thorax -7.40194 0.661114 -0.642967
lowerneck 12.4811 8.37201 18.2079
upperneck -11.2454 12.2097 -25.2359
head -2.46038 7.11857 -11.6692
rclavicle -5.725e-014 -1.35174e-014
rhumerus 34.8883 31.8558 -29.4849
rradius 62.3368
rwrist -31.8576
rhand -8.15722 16.1583
rfingers 7.12502
rthumb 17.7576 -13.0509
lclavicle -5.725e-014 -1.35174e-014
lhumerus 13.5076 13.9705 2.51946
lradius 55.5644
lwrist 11.964
lhand -48.0935 11.2171
lfingers 7.12502
lthumb -20.7582 40.1267
rfemur -21.5044 -1.04675 12.6725
rtibia 22.2644
rfoot -6.54672 3.07799
rtoes 29.3153
lfemur -2.11567 -14.0696 -22.6328
ltibia 27.3837
lfoot 15.7083 -28.6388
ltoes 47.7228
516
root -0.837965 17.7977 -2.79523 2.54287 76.0847 360.547
lowerback 2.18362 1.07766 3.17108
upperback -6.02507 1.82338 1.2016
thorax -7.46605 0.79764 -0.677759
lowerneck 9.78457 8.95657 15.3274
upperneck -8.80572 12.6542 -22.4223
head -1.63604 7.0905 -9.86236
rclavicle -8.15017e-015 5.56597e-015
rhumerus 35.1438 31.845 -28.8204
rradius 62.2929
rwrist -31.6196
rhand -8.21586 16.2501
rfingers 7.12502
rthumb 17.7011 -12.9642
lclavicle -8.15017e-015 5.56597e-015
lhumerus 13.6422 13.62 2.67507
lradius 55.4482
lwrist 12.1321
lhand -48.1134 11.0172
lfingers 7.12502
lthumb -20.7774 39.9248
rfemur -21.0761 -1.35873 13.1862
rtibia 22.3023
rfoot -6.79234 2.85383
rtoes 32.5992
lfemur -2.14918 -13.9653 -21.9016
ltibia 27.7157
lfoot 17.2798 -27.9271
ltoes 50.436
517
root -0.798654 17.8037 -2.69493 0.334351 76.9166 358.307
lowerback 2.36008 1.30079 3.50159
upperback -6.08017 2.16666 1.32269
thorax -7.61285 0.950412 -0.769766
lowerneck 10.4036 8.86482 15.9838
upperneck -8.9867 12.657 -23.6406
head -1.65289 7.18377 -10.4359
rclavicle -1.49089e-015 3.18055e-015
rhumerus 35.2858 31.8848 -28.5081
rradius 62.167
rwrist -31.6431
rhand -8.43819 16.3097
rfingers 7.12502
rthumb 17.4872 -12.9237
lclavicle -1.49089e-015 3.18055e-015
lhumerus 13.6291 12.8681 2.57223
lradius 55.7777
lwrist 12.7752
lhand -48.2001 11.9302
lfingers 7.12502
lthumb -20.8607 40.8287
rfemur -20.5745 -1.57687 13.9608
rtibia 22.2016
rfoot -7.24935 2.46492
rtoes 33.0722
lfemur -2.21491 -13.7742 -20.8916
ltibia 28.136
lfoot 18.536 -27.3507
ltoes 52.6191
518
root -0.760438 17.8181 -2.60274 -1.49064 77.812 356.442
lowerback 2.52581 1.39895 3.83462
upperback -6.10128 2.33266 1.33835
thorax -7.71702 1.01138 -0.958521
lowerneck 10.5284 8.93529 16.4992
upperneck -8.85126 12.8644 -24.6197
head -1.47879 7.34019 -10.8492
rclavicle -3.0911e-014 -1.98785e-014
rhumerus 35.6083 31.9636 -28.5326
rradius 62.1116
rwrist -31.6353
rhand -8.27213 16.227
rfingers 7.12502
rthumb 17.647 -12.9921
lclavicle -3.0911e-014 -1.98785e-014
lhumerus 13.8311 13.205 2.96292
lradius 55.2378
lwrist 12.383
lhand -47.973 12.0383
lfingers 7.12502
lthumb -20.6425 40.9606
rfemur -20.0764 -2.16209 14.6264
rtibia 22.0666
rfoot -7.80447 2.02344
rtoes 30.0755
lfemur -2.36408 -13.7325 -20.0559
ltibia 28.6185
lfoot 18.0229 -27.4457
ltoes 52.024
519
root -0.721467 17.8257 -2.51329 -2.39959 78.7752 355.459
lowerback 2.60682 1.42014 4.04092
upperback -6.11813 2.37253 1.22412
thorax -7.76954 1.01339 -1.19946
lowerneck 10.3424 9.13039 16.7366
upperneck -8.56942 13.2003 -25.2376
head -1.22717 7.52661 -11.0539
rclavicle -5.66536e-015 8.74653e-015
rhumerus 36.051 31.9798 -28.7156
rradius 62.0222
rwrist -31.5815
rhand -7.87271 16.0627
rfingers 7.12502
rthumb 18.0313 -13.1215
lclavicle -5.66536e-015 8.74653e-015
lhumerus 13.4739 12.9731 2.5532
lradius 55.6532
lwrist 12.6824
lhand -47.9883 11.7737
lfingers 7.12502
lthumb -20.6572 40.6944
rfemur -19.6702 -2.73185 14.9987
rtibia 21.9782
rfoot -8.2427 1.51187
rtoes 28.991
lfemur -2.59839 -13.5792 -19.5273
ltibia 29.1321
lfoot 17.9394 -27.2881
ltoes 51.656
520
root -0.681134 17.8231 -2.42276 -3.59074 79.6926 354.062
lowerback 2.60823 1.43913 4.14876
upperback -6.23465 2.41836 1.25022
thorax -7.8927 1.02916 -1.23823
lowerneck 10.4084 9.31334 16.7266
upperneck -8.44865 13.5023 -25.7737
head -1.09469 7.71663 -11.2183
rclavicle 5.76476e-015 -7.95139e-016
rhumerus 36.5916 32.1668 -28.5985
rradius 61.903
rwrist -31.5837
rhand -7.80342 16.2533
rfingers 7.12502
rthumb 18.098 -12.9247
lclavicle 5.76476e-015 -7.95139e-016
lhumerus 13.0358 12.523 2.15518
lradius 55.991
lwrist 13.0178
lhand -48.0234 12.1099
lfingers 7.12502
lthumb -20.6908 41.027
rfemur -19.4732 -3.02148 15.3598
rtibia 22.0021
rfoot -8.59816 1.14071
rtoes 30.4976
lfemur -2.99176 -13.0451 -18.9362
ltibia 29.6584
lfoot 17.8102 -27.5389
ltoes 50.8176
521
root -0.640928 17.8301 -2.33818 -4.32434 80.6374 353.187
lowerback 2.67348 1.46726 4.06402
upperback -6.34018 2.47132 1.33867
thorax -8.05019 1.06189 -1.10696
lowerneck 10.4374 9.4453 16.4379
upperneck -8.29527 13.7011 -26.1481
head -1.00449 7.8525 -11.2831
rclavicle -1.10325e-014 -2.18663e-014
rhumerus 37.2334 32.5118 -28.0257
rradius 61.9196
rwrist -31.7097
rhand -8.27471 16.4498
rfingers 7.12502
rthumb 17.6445 -12.7696
lclavicle -1.10325e-014 -2.18663e-014
lhumerus 12.8467 12.3015 2.12501
lradius 55.7171
lwrist 13.054
lhand -48.1223 13.2514
lfingers 7.12502
lthumb -20.786 42.158
rfemur -19.3005 -3.7596 15.6274
rtibia 22.1473
rfoot -9.18392 1.23754
rtoes 31.8672
lfemur -3.33822 -12.9372 -18.4638
ltibia 30.1786
lfoot 17.1856 -27.529
ltoes 50.0117
522
root -0.6004 17.8422 -2.2541 -5.09623 81.6346 352.424
lowerback 2.70875 1.59169 4.13172
upperback -6.30983 2.6282 1.14622
thorax -8.01852 1.12783 -1.36172
lowerneck 10.3186 9.48302 16.547
upperneck -8.06909 13.8077 -26.4192
head -0.865954 7.91004 -11.3693
rclavicle 2.03754e-014 2.78299e-014
rhumerus 37.4049 32.3894 -28.0418
rradius 61.849
rwrist -31.737
rhand -8.64364 16.4714
rfingers 7.12502
rthumb 17.2895 -12.7795
lclavicle 2.03754e-014 2.78299e-014
lhumerus 13.3546 12.5447 2.36563
lradius 55.0968
lwrist 12.7831
lhand -48.3036 13.9252
lfingers 7.12502
lthumb -20.9601 42.8127
rfemur -18.9406 -4.93356 15.9276
rtibia 22.2077
rfoot -9.77728 1.36136
rtoes 30.7805
lfemur -3.55821 -13.0335 -18.0733
ltibia 30.7665
lfoot 16.0546 -27.1746
ltoes 48.7774
